<svg xmlns="http://www.w3.org/2000/svg" version="1.1" xmlns:xlink="http://www.w3.org/1999/xlink" width="16" height="16"><svg width="16" height="16" viewBox="0 0 16 16" fill="none" xmlns="http://www.w3.org/2000/svg">
<rect width="16" height="16" rx="2" fill="black"></rect>
<path d="M13.1414 9.49592C13.1414 9.61239 13.0504 9.70681 12.9381 9.70681H12.088C11.9758 9.70681 11.8848 9.61239 11.8848 9.49592V2.21088C11.8848 2.09442 11.9758 2 12.088 2H12.9381C13.0504 2 13.1414 2.09442 13.1414 2.21088V9.49592Z" fill="#7D7D7D"></path>
<path d="M5.95225 8.2745C5.69985 8.4086 5.39025 8.48016 5.01573 8.48017C4.64098 8.48017 4.33119 8.40855 4.0787 8.2743C3.83273 8.14004 3.64493 7.96088 3.5107 7.73575L3.49789 7.71377C3.36266 7.47561 3.29253 7.20025 3.29253 6.8821V2.20744C3.29253 2.09288 3.19893 2.00001 3.0835 2H2.20903C2.09359 2 2 2.09288 2 2.20744V6.95209C2 7.47561 2.12351 7.95024 2.37484 8.37017L2.37561 8.37143C2.62902 8.78802 2.98463 9.11557 3.4368 9.35372L3.43762 9.35412C3.89361 9.59175 4.42184 9.70681 5.01573 9.70681C5.60961 9.7068 6.13781 9.59175 6.5938 9.35412L6.59461 9.35372C7.04683 9.11555 7.40141 8.78788 7.65254 8.37098C7.90651 7.95093 8.03141 7.476 8.03141 6.95209V2.20744C8.03141 2.09287 7.93782 2 7.82238 2H6.94792C6.83248 2.00001 6.73888 2.09288 6.73888 2.20744V6.8821C6.73888 7.20054 6.66863 7.47612 6.53317 7.71443L6.53286 7.71494C6.40036 7.94959 6.20874 8.13585 5.95225 8.2745Z" fill="#7D7D7D"></path>
<path d="M2 10.9063C2 10.2641 2.06006 9.6895 2.18252 9.18434C2.30466 8.67819 2.48378 8.24408 2.72393 7.88691C2.9637 7.528 3.25681 7.25026 3.60429 7.05969L3.60481 7.0594C3.95557 6.86843 4.34796 6.77487 4.77744 6.77487C5.20142 6.77487 5.58628 6.86014 5.92726 7.03569C6.26808 7.20768 6.54771 7.44931 6.76324 7.75922C6.97819 8.0683 7.11567 8.42234 7.17772 8.81772C7.18659 8.87426 7.17033 8.93188 7.1332 8.97538C7.09607 9.01888 7.04178 9.04393 6.98465 9.04393H6.13784C6.04791 9.04393 5.96959 8.98245 5.94807 8.89497C5.87792 8.60975 5.74378 8.37872 5.54676 8.19544C5.3635 8.02497 5.11392 7.93137 4.77744 7.93137C4.29591 7.93137 3.92195 8.13529 3.63936 8.56273C3.41327 8.90748 3.26891 9.37423 3.21734 9.97369C3.27458 9.91815 3.33461 9.86577 3.39753 9.81665C3.59479 9.66215 3.8125 9.54302 4.04983 9.45955C4.28922 9.37536 4.54144 9.33373 4.80521 9.33373C5.24675 9.33373 5.6543 9.44483 6.02356 9.66779C6.39106 9.88736 6.68483 10.1914 6.9042 10.5758L6.92472 10.6123C7.13353 10.9912 7.2356 11.4201 7.2356 11.8937C7.2356 12.3645 7.1302 12.8 6.91732 13.1964L6.91703 13.1969C6.70367 13.5917 6.40264 13.907 6.01678 14.1404L6.01645 14.1406C5.62684 14.3753 5.17367 14.4864 4.66449 14.4815C4.6641 14.4815 4.6637 14.4815 4.6633 14.4815C4.3486 14.4765 4.03551 14.4164 3.72482 14.3028C3.4018 14.1846 3.11102 13.9868 2.85225 13.7151C2.85205 13.7149 2.85183 13.7147 2.85163 13.7145C2.58663 13.4337 2.38102 13.0623 2.22886 12.6099L2.22876 12.6096C2.07408 12.1471 2 11.5774 2 10.9063Z" fill="white"></path>
<path d="M13.1451 11.7971H13.9452C14.0564 11.7971 14.1466 11.887 14.1466 11.998V12.7827C14.1466 12.8936 14.0564 12.9836 13.9452 12.9836H13.1451V14.2808C13.1451 14.3917 13.0549 14.4817 12.9437 14.4817H12.0996C11.9883 14.4817 11.8981 14.3917 11.8981 14.2808V12.9836H8.65169C8.54046 12.9836 8.45027 12.8936 8.45026 12.7827V12.055C8.45026 12.017 8.46108 11.9798 8.48144 11.9477L11.7004 6.8684C11.7373 6.81015 11.8016 6.77487 11.8707 6.77487H12.9437C13.0549 6.77487 13.1451 6.86481 13.1451 6.97576V11.7971Z" fill="white"></path>
</svg><style>@media (prefers-color-scheme: light) { :root { filter: none; } }
@media (prefers-color-scheme: dark) { :root { filter: none; } }
</style></svg>