<svg width="211" height="276" viewBox="0 0 211 276" fill="none" xmlns="http://www.w3.org/2000/svg">
<path d="M50.291 137.008C57.8818 137.008 64.7905 138.53 70.9209 141.675C77.0422 144.754 82.069 149.083 85.9424 154.634C89.8039 160.169 92.2698 166.504 93.3818 173.567C93.5619 174.712 93.2315 175.878 92.4775 176.758C91.7236 177.639 90.6215 178.146 89.4619 178.146H74.4336C72.6081 178.146 71.0172 176.901 70.5801 175.13C69.357 170.174 67.0239 166.175 63.6035 163.003C60.4625 160.091 56.1639 158.465 50.291 158.465C41.921 158.465 35.4367 161.982 30.5098 169.411C26.7225 175.168 24.2284 182.909 23.2256 192.829C23.9577 192.166 24.7129 191.528 25.4941 190.92L26.1631 190.409C29.5285 187.889 33.2166 185.927 37.2129 184.526C41.517 183.017 46.0489 182.272 50.7832 182.272C58.7056 182.272 66.0274 184.26 72.6602 188.251C79.0531 192.059 84.2026 197.285 88.0947 203.855L88.4678 204.495L88.4688 204.498L88.833 205.143L88.835 205.146C92.5864 211.932 94.415 219.603 94.415 228.056C94.415 236.462 92.5264 244.247 88.707 251.336C88.7029 251.344 88.697 251.351 88.6924 251.359C84.8634 258.415 79.4618 264.054 72.543 268.226L72.5332 268.233L72.5322 268.232C65.5276 272.437 57.3932 274.419 48.2812 274.332H48.2568C42.6127 274.242 37.001 273.168 31.4385 271.14C25.6253 269.021 20.4014 265.474 15.7627 260.62V260.619C15.7596 260.616 15.7555 260.612 15.751 260.607C10.9857 255.574 7.30467 248.936 4.58789 240.883L4.58691 240.882L4.58594 240.877C1.81808 232.629 0.500036 222.493 0.5 210.59L0.512695 208.468C0.638106 197.929 1.70473 188.433 3.75293 180.011C5.86308 171.295 8.93197 163.762 13.0332 157.501L13.4326 156.9C17.7271 150.493 22.9868 145.522 29.2314 142.108L29.2412 142.102H29.2422C35.5473 138.68 42.5947 137.008 50.291 137.008ZM72.4326 268.058L72.4385 268.067L72.4326 268.058Z" fill="#000000" stroke="#000000" stroke-linejoin="round"/>
<path d="M188.499 140.5C190.694 140.5 192.474 142.28 192.474 144.475V227.354H205.772L205.977 227.358C208.076 227.465 209.746 229.201 209.746 231.327V244.898C209.746 247.093 207.967 248.872 205.772 248.872H192.474V270.806C192.474 273.001 190.694 274.779 188.499 274.779H173.94C171.746 274.779 169.967 273 169.967 270.806V248.872H114.475C112.28 248.872 110.5 247.093 110.5 244.898V232.313L110.51 232.032C110.556 231.379 110.764 230.746 111.115 230.19L166.633 142.351C167.361 141.198 168.63 140.5 169.993 140.5H188.499Z" fill="#000000" stroke="#000000" stroke-linejoin="round"/>
<path d="M19.0596 0.5L19.2646 0.504883C21.3697 0.611743 23.0439 2.35348 23.0439 4.48535V83.0176C23.0439 88.2844 24.1942 92.8226 26.3994 96.7393L26.6133 97.1084H26.6123C28.8018 100.808 31.8648 103.754 35.8887 105.968H35.8877C40.0081 108.175 45.0856 109.364 51.2656 109.364C57.251 109.364 62.2019 108.248 66.251 106.173L66.6396 105.969C70.8352 103.682 73.9578 100.619 76.1172 96.7646L76.125 96.752C78.3347 92.8325 79.4873 88.29 79.4873 83.0176V4.48535C79.4873 2.28472 81.2714 0.500176 83.4717 0.5H98.0469C100.247 0.500063 102.031 2.28469 102.031 4.48535V84.1934C102.031 93.0766 99.9281 101.145 95.6445 108.286C91.4092 115.373 85.4302 120.94 77.8174 124.981C77.8113 124.985 77.8055 124.987 77.8018 124.989L77.0771 125.361C69.5601 129.145 60.9185 130.972 51.2656 130.972C41.3046 130.972 32.4202 129.027 24.7373 124.993H24.7363C24.7351 124.993 24.7319 124.991 24.7285 124.989L24.7139 124.981C17.102 120.941 11.1054 115.376 6.83203 108.296V108.295L6.81934 108.273L6.81836 108.271C2.57913 101.132 0.5 93.0693 0.5 84.1934V4.48535C0.5 2.28469 2.28398 0.500078 4.48438 0.5H19.0596Z" fill="#000000" stroke="#000000" stroke-linejoin="round"/>
<path d="M186.876 0.5C189.061 0.500049 190.825 2.28655 190.825 4.48047V124.707C190.825 126.901 189.061 128.686 186.876 128.687H172.449C170.264 128.687 168.5 126.901 168.5 124.707V4.48047L168.505 4.27539C168.611 2.17617 170.332 0.5 172.449 0.5H186.876Z" fill="#000000" stroke="#000000" stroke-linejoin="round"/>
</svg>
